<?xml version="1.0" encoding="UTF-8" standalone="no"?>
<svg
   xmlns:dc="http://purl.org/dc/elements/1.1/"
   xmlns:cc="http://creativecommons.org/ns#"
   xmlns:rdf="http://www.w3.org/1999/02/22-rdf-syntax-ns#"
   xmlns:svg="http://www.w3.org/2000/svg"
   xmlns="http://www.w3.org/2000/svg"
   xmlns:sodipodi="http://sodipodi.sourceforge.net/DTD/sodipodi-0.dtd"
   xmlns:inkscape="http://www.inkscape.org/namespaces/inkscape"
   width="355"
   height="525"
   version="1.1"
   id="svg88"
   sodipodi:docname="Sound Controls Export.svg"
   inkscape:version="0.92.3 (unknown)">
  <title
     id="title4836">Media Controls</title>
  <metadata
     id="metadata94">
    <rdf:RDF>
      <cc:Work
         rdf:about="">
        <dc:format>image/svg+xml</dc:format>
        <dc:type
           rdf:resource="http://purl.org/dc/dcmitype/StillImage" />
        <dc:title>Media Controls</dc:title>
        <cc:license
           rdf:resource="http://creativecommons.org/licenses/by/4.0/" />
        <dc:date>2018</dc:date>
        <dc:creator>
          <cc:Agent>
            <dc:title>dis@tessier-ashpool-sa.net</dc:title>
          </cc:Agent>
        </dc:creator>
      </cc:Work>
      <cc:License
         rdf:about="http://creativecommons.org/licenses/by/4.0/">
        <cc:permits
           rdf:resource="http://creativecommons.org/ns#Reproduction" />
        <cc:permits
           rdf:resource="http://creativecommons.org/ns#Distribution" />
        <cc:requires
           rdf:resource="http://creativecommons.org/ns#Notice" />
        <cc:requires
           rdf:resource="http://creativecommons.org/ns#Attribution" />
        <cc:permits
           rdf:resource="http://creativecommons.org/ns#DerivativeWorks" />
      </cc:License>
    </rdf:RDF>
  </metadata>
  <defs
     id="defs92" />
  <sodipodi:namedview
     pagecolor="#ffffff"
     bordercolor="#666666"
     borderopacity="1"
     objecttolerance="10"
     gridtolerance="10"
     guidetolerance="10"
     inkscape:pageopacity="0"
     inkscape:pageshadow="2"
     inkscape:window-width="640"
     inkscape:window-height="480"
     id="namedview90"
     showgrid="false"
     inkscape:zoom="1.1515739"
     inkscape:cx="184.13282"
     inkscape:cy="228.67425"
     inkscape:current-layer="svg88" />
  <path
     d="m30 10a11.5 11.5 0 0 0-11.4 11.7v23.1a11.5 11.5 0 1 0 23.1 0v-23.1a11.5 11.5 0 0 0-11.7-11.7zm-17.2 30.9a2.88 2.88 0 0 0-2.84 2.93c0 7.21 3.85 13.9 10.1 17.5a20.2 20.2 0 0 0 7.21 2.49v8.74a31.4 31.4 0 0 0-4.71 0.735c-2.4 0.578-4.45 1.4-6.08 2.58-1.64 1.18-3.05 2.96-3.05 5.22a2.88 2.88 0 0 0 2.88 2.88h27.7a2.88 2.88 0 0 0 2.88-2.88c0-2.26-1.41-4.04-3.05-5.22-1.64-1.18-3.68-2-6.08-2.58-1.51-0.363-3.1-0.6-4.71-0.735v-8.74a20.2 20.2 0 0 0 7.21-2.49 20.2 20.2 0 0 0 10.1-17.5 2.88 2.88 0 1 0-5.77 0c0 5.16-2.74 9.91-7.21 12.5a14.4 14.4 0 0 1-14.4 0 14.4 14.4 0 0 1-7.21-12.5 2.88 2.88 0 0 0-2.93-2.93z"
     id="path2"
     inkscape:label="Microphone" />
  <path
     d="m39.8 112a1.2 1.2 0 0 0-0.74 0.3l-12.8 11h-12.7c-1 0-1.83 0.5-2.46 1.12a3.47 3.47 0 0 0-1.12 2.46v13.1c0 1.01 0.5 1.84 1.12 2.47a3.47 3.47 0 0 0 2.46 1.12h12.7l12.8 11a1.2 1.2 0 0 0 1.97-0.9v-40.6a1.2 1.2 0 0 0-1.23-1.19z"
     id="path4"
     inkscape:label="Volume 0%" />
  <g
     transform="translate(81.7,96.4)"
     id="g10"
     inkscape:label="Volume 25%">
    <path
       d="m 53.6,22.6 a 1.8,1.8 0 0 0 -1.25,3.08 16.7,16.7 0 0 1 0,23.6 1.8,1.8 0 1 0 2.53,2.54 20.3,20.3 0 0 0 0,-28.7 1.8,1.8 0 0 0 -1.28,-0.54 z"
       style="opacity:0.8"
       id="path6"
       inkscape:connector-curvature="0" />
    <path
       d="m 44,16 a 1.2,1.2 0 0 0 -0.74,0.3 l -12.8,11 h -12.7 c -1,0 -1.83,0.5 -2.46,1.12 a 3.47,3.47 0 0 0 -1.12,2.46 v 13.1 c 0,1.01 0.5,1.84 1.12,2.47 a 3.47,3.47 0 0 0 2.46,1.12 h 12.7 l 12.8,11 a 1.2,1.2 0 0 0 1.97,-0.9 V 17.07 A 1.2,1.2 0 0 0 44,15.88 Z"
       id="path8"
       inkscape:connector-curvature="0" />
  </g>
  <path
     d="m227 112a1.2 1.2 0 0 0-0.74 0.3l-12.8 11h-12.7c-1 0-1.83 0.5-2.46 1.12a3.47 3.47 0 0 0-1.12 2.46v13.1c0 1.01 0.5 1.84 1.12 2.47a3.47 3.47 0 0 0 2.46 1.12h12.7l12.8 11a1.2 1.2 0 0 0 1.97-0.9v-40.6a1.2 1.2 0 0 0-1.23-1.19zm9.52 6.6a1.8 1.8 0 0 0-1.25 3.07 16.7 16.7 0 0 1 0 23.6 1.8 1.8 0 1 0 2.53 2.54 20.3 20.3 0 0 0 0-28.7 1.8 1.8 0 0 0-1.28-0.54z"
     id="path12"
     inkscape:label="Volume 33%" />
  <g
     transform="translate(278,96.4)"
     id="g18"
     inkscape:label="Volume 50%">
    <path
       d="m 58.3,15 a 1.8,1.8 0 0 0 -1.33,2.96 30.4,30.4 0 0 1 0,39.1 1.8,1.8 0 1 0 2.74,2.3 34,34 0 0 0 0,-43.7 A 1.8,1.8 0 0 0 58.3,15 Z"
       style="opacity:0.17000002"
       id="path14"
       inkscape:connector-curvature="0" />
    <path
       d="m 37.2,16 a 1.2,1.2 0 0 0 -0.74,0.3 l -12.8,11 h -12.7 c -1,0 -1.83,0.5 -2.46,1.12 a 3.47,3.47 0 0 0 -1.12,2.46 v 13.1 c 0,1.01 0.5,1.84 1.12,2.47 a 3.47,3.47 0 0 0 2.46,1.11 h 12.7 l 12.8,11.1 a 1.2,1.2 0 0 0 1.97,-0.9 v -40.6 a 1.2,1.2 0 0 0 -1.23,-1.2 z m 9.52,6.6 a 1.8,1.8 0 0 0 -1.25,3.07 16.7,16.7 0 0 1 0,23.6 1.8,1.8 0 1 0 2.53,2.54 20.3,20.3 0 0 0 0,-28.7 1.8,1.8 0 0 0 -1.28,-0.54 z"
       id="path16"
       inkscape:connector-curvature="0" />
  </g>
  <path
     d="m39.8 183a1.2 1.2 0 0 0-0.74 0.3l-12.8 11h-12.7c-1 0-1.83 0.5-2.46 1.12a3.47 3.47 0 0 0-1.12 2.46v13.1c0 1.01 0.5 1.84 1.12 2.47a3.47 3.47 0 0 0 2.46 1.11h12.7l12.8 11.1a1.2 1.2 0 0 0 1.97-0.9v-40.6a1.2 1.2 0 0 0-1.23-1.2zm9.52 6.6a1.8 1.8 0 0 0-1.25 3.07 16.7 16.7 0 0 1 0 23.6 1.8 1.8 0 1 0 2.53 2.54 20.3 20.3 0 0 0 0-28.7 1.8 1.8 0 0 0-1.28-0.54zm11.6-7.64a1.8 1.8 0 0 0-1.33 2.96 30.4 30.4 0 0 1 0 39.1 1.8 1.8 0 1 0 2.74 2.3 34 34 0 0 0 0-43.7 1.8 1.8 0 0 0-1.41-0.66z"
     id="path20"
     inkscape:label="Volume 67%" />
  <g
     transform="translate(137,167)"
     id="g26"
     inkscape:label="Volume 75%">
    <path
       d="m 63.8,8.35 a 1.8,1.8 0 0 0 -1.5,2.87 44.2,44.2 0 0 1 0,52.5 1.8,1.8 0 1 0 2.87,2.13 47.8,47.8 0 0 0 0,-56.8 1.8,1.8 0 0 0 -1.37,-0.74 z"
       style="opacity:0.07999998"
       id="path22"
       inkscape:connector-curvature="0" />
    <path
       d="m 30.3,16 a 1.2,1.2 0 0 0 -0.74,0.3 l -12.8,11 H 4.06 c -1,0 -1.83,0.49 -2.46,1.12 a 3.47,3.47 0 0 0 -1.13,2.46 v 13.1 c 0,1 0.49,1.83 1.12,2.46 a 3.47,3.47 0 0 0 2.46,1.12 h 12.7 l 12.8,11 a 1.2,1.2 0 0 0 1.96,-0.9 v -40.6 a 1.2,1.2 0 0 0 -1.23,-1.2 z m 9.52,6.6 a 1.8,1.8 0 0 0 -1.24,3.08 16.7,16.7 0 0 1 0,23.6 1.8,1.8 0 1 0 2.53,2.53 20.3,20.3 0 0 0 0,-28.7 1.8,1.8 0 0 0 -1.29,-0.54 z m 11.6,-7.63 a 1.8,1.8 0 0 0 -1.33,2.96 30.4,30.4 0 0 1 0,39.1 1.8,1.8 0 1 0 2.74,2.3 34,34 0 0 0 0,-43.7 1.8,1.8 0 0 0 -1.41,-0.65 z"
       id="path24"
       inkscape:connector-curvature="0" />
  </g>
  <path
     d="m335 175a1.8 1.8 0 0 0-1.5 2.87 44.2 44.2 0 0 1 0 52.5 1.8 1.8 0 1 0 2.87 2.13 47.8 47.8 0 0 0 0-56.8 1.8 1.8 0 0 0-1.37-0.74zm-12.4 6.62a1.8 1.8 0 0 0-1.33 2.96 30.4 30.4 0 0 1 0 39.1 1.8 1.8 0 1 0 2.74 2.3 34 34 0 0 0 0-43.7 1.8 1.8 0 0 0-1.41-0.65zm-11.6 7.63a1.8 1.8 0 0 0-1.24 3.08 16.7 16.7 0 0 1 0 23.6 1.8 1.8 0 1 0 2.53 2.53 20.3 20.3 0 0 0 0-28.7 1.8 1.8 0 0 0-1.29-0.54zm-9.52-6.6a1.2 1.2 0 0 0-0.74 0.3l-12.8 11h-12.7c-1 0-1.83 0.49-2.46 1.12a3.47 3.47 0 0 0-1.13 2.46v13.1c0 1 0.49 1.83 1.12 2.46a3.47 3.47 0 0 0 2.46 1.12h12.7l12.8 11a1.2 1.2 0 0 0 1.96-0.9v-40.6a1.2 1.2 0 0 0-1.23-1.2z"
     id="path28"
     inkscape:label="Volume 100%" />
  <g
     transform="translate(239,9.49)"
     id="g34"
     inkscape:label="Speaker Mute LtR">
    <path
       d="m 6.5,12.4 a 1.5,1.5 0 0 0 -1.4,2.08 l 19.1,47.1 a 1.5,1.5 0 1 0 2.78,-1.12 l -19,-47.1 a 1.5,1.5 0 0 0 -1.4,-0.95 z"
       style="opacity:0.5"
       id="path30"
       inkscape:connector-curvature="0" />
    <path
       d="m 4.08,27.4 c -1,0 -1.83,0.49 -2.46,1.11 A 3.48,3.48 0 0 0 0.5,30.98 v 13.1 c 0,1 0.49,1.83 1.12,2.46 a 3.47,3.47 0 0 0 2.46,1.12 h 12.7 l 0.17,0.15 -8.26,-20.4 z M 30.28,16 a 1.2,1.2 0 0 0 -0.74,0.29 l -12.8,11 h -1.6 l 11.7,29 2.68,2.32 a 1.2,1.2 0 0 0 1.98,-0.9 v -40.6 a 1.2,1.2 0 0 0 -1.24,-1.2 z"
       id="path32"
       inkscape:connector-curvature="0" />
  </g>
  <g
     transform="translate(292,9.48)"
     id="g40"
     inkscape:label="Speaker Mute RtL">
    <path
       d="m 47,12.4 a 1.5,1.5 0 0 0 -1.35,0.96 l -19,47.1 a 1.5,1.5 0 1 0 2.78,1.12 l 19,-47.1 a 1.5,1.5 0 0 0 -1.44,-2.07 z"
       style="opacity:0.5"
       id="path36"
       inkscape:connector-curvature="0" />
    <path
       d="m 38.5,27.2 -0.21,0.18 h -12.7 c -1,0 -1.83,0.5 -2.46,1.12 a 3.48,3.48 0 0 0 -1.12,2.46 v 13.1 c 0,1.01 0.5,1.84 1.12,2.47 a 3.47,3.47 0 0 0 2.46,1.11 h 4.63 z M 51.8,16 a 1.2,1.2 0 0 0 -0.75,0.3 l -2.64,2.27 -11.7,29.1 h 1.59 l 12.8,11.1 a 1.2,1.2 0 0 0 1.97,-0.9 v -40.6 a 1.2,1.2 0 0 0 -1.23,-1.19 z"
       id="path38"
       inkscape:connector-curvature="0" />
  </g>
  <path
     d="m11.2 255c0.262 7e-3 0.514 0.106 0.711 0.279l23 20.2c0.509 0.448 0.509 1.24 0 1.69l-23 20.2c-0.727 0.641-1.87 0.124-1.87-0.846v-40.5c8.9e-4 -0.634 0.525-1.14 1.16-1.12z"
     id="path42"
     inkscape:label="Play" />
  <path
     d="m109 398c-0.828 8e-5 -1.5 0.672-1.5 1.5v39.8c8e-5 0.828 0.672 1.5 1.5 1.5h39.8c0.828-8e-5 1.5-0.672 1.5-1.5v-39.8c-8e-5 -0.828-0.672-1.5-1.5-1.5z"
     id="path44"
     inkscape:label="Stop" />
  <path
     d="m343 255a2.5 2.5 0 0 0-2.46 2.54v37.7a2.5 2.5 0 1 0 5 0v-37.7a2.5 2.5 0 0 0-2.54-2.54zm-12.6 0a2.5 2.5 0 0 0-2.46 2.54v37.7a2.5 2.5 0 1 0 5 0v-37.7a2.5 2.5 0 0 0-2.54-2.54z"
     id="path46"
     inkscape:label="Pause" />
  <path
     d="m238 255a2.5 2.5 0 0 0-2.46 2.54v16.3l0.693 0.611c1.17 1.03 1.17 2.91 0 3.94l-0.693 0.611v16.3a2.5 2.5 0 1 0 5 0v-37.7a2.5 2.5 0 0 0-2.54-2.54zm12.6 0a2.5 2.5 0 0 0-2.46 2.54v37.7a2.5 2.5 0 1 0 5 0v-37.7a2.5 2.5 0 0 0-2.54-2.54zm-39.1 0.0142c0.262 7e-3 0.514 0.106 0.711 0.279l23 20.2c0.509 0.448 0.509 1.24 0 1.69l-23 20.2c-0.727 0.641-1.87 0.124-1.87-0.846v-40.5c8.9e-4 -0.634 0.525-1.14 1.16-1.12z"
     id="path48"
     inkscape:label="Play Pause" />
  <path
     d="m11.2 327c0.262 7e-3 0.514 0.106 0.711 0.279l23 20.2c0.509 0.448 0.509 1.24 0 1.69l-23 20.2c-0.727 0.641-1.87 0.124-1.87-0.846v-40.5c8.9e-4 -0.634 0.525-1.14 1.16-1.12zm17.5 7.5e-4c-0.633-0.0186-1.16 0.489-1.16 1.12v10.9l8.36 7.36c1.17 1.03 1.17 2.91 0 3.94l-8.36 7.36v10.9c-1e-3 0.969 1.14 1.49 1.87 0.846l23-20.2c0.509-0.448 0.509-1.24 0-1.69l-23-20.2c-0.197-0.173-0.449-0.272-0.711-0.279z"
     id="path50"
     inkscape:label="Fast Forward" />
  <path
     d="m149 327c-0.262 7e-3 -0.514 0.106-0.711 0.279l-23 20.2c-0.509 0.448-0.509 1.24 0 1.69l23 20.2c0.727 0.641 1.87 0.124 1.87-0.846v-40.5c-8.9e-4 -0.634-0.525-1.14-1.16-1.12zm-17.5 7.5e-4c0.633-0.0186 1.16 0.489 1.16 1.12v10.9l-8.36 7.36c-1.17 1.03-1.17 2.91 0 3.94l8.36 7.36v10.9c1e-3 0.969-1.14 1.49-1.87 0.846l-23-20.2c-0.509-0.448-0.509-1.24 0-1.69l23-20.2c0.197-0.173 0.449-0.272 0.711-0.279z"
     id="path52"
     inkscape:label="Rewind" />
  <path
     d="m139 255c-0.262 7e-3 -0.514 0.106-0.711 0.279l-23 20.2c-0.509 0.448-0.509 1.24 0 1.69l23 20.2c0.727 0.641 1.87 0.124 1.87-0.846v-40.5c-8.9e-4 -0.634-0.525-1.14-1.16-1.12z"
     id="path54"
     inkscape:label="Reverse" />
  <path
     d="m245 327a2.5 2.5 0 0 0-2.46 2.54v15.2l1.92 1.69 2e-3 2e-3c1.17 1.03 1.17 2.91-2e-3 3.94l-1.92 1.69v15.2a2.5 2.5 0 1 0 5 0v-37.7a2.5 2.5 0 0 0-2.54-2.54zm-25.2 0.0137c-0.633-0.0186-1.16 0.489-1.16 1.12v7.67l12 10.6c1.17 1.03 1.17 2.91 0 3.94l-12 10.6v7.67c-1e-3 0.969 1.14 1.49 1.87 0.846l23-20.2c0.509-0.448 0.509-1.24 0-1.69l-23-20.2c-0.197-0.173-0.449-0.272-0.711-0.279zm-13.8 8.9e-4c0.262 7e-3 0.514 0.106 0.711 0.279l23 20.2c0.509 0.448 0.509 1.24 0 1.69l-23 20.2c-0.727 0.641-1.87 0.124-1.87-0.846v-40.5c8.9e-4 -0.634 0.525-1.14 1.16-1.12z"
     id="path56"
     inkscape:label="Skip Forward" />
  <path
     d="m305 327a2.5 2.5 0 0 1 2.46 2.54v15.2l-1.92 1.69-2e-3 2e-3c-1.17 1.03-1.17 2.91 2e-3 3.94l1.92 1.69v15.2a2.5 2.5 0 1 1-5 0v-37.7a2.5 2.5 0 0 1 2.54-2.54zm25.2 0.0137c0.633-0.0186 1.16 0.489 1.16 1.12v7.67l-12 10.6c-1.17 1.03-1.17 2.91 0 3.94l12 10.6v7.67c1e-3 0.969-1.14 1.49-1.87 0.846l-23-20.2c-0.509-0.448-0.509-1.24 0-1.69l23-20.2c0.197-0.173 0.449-0.272 0.711-0.279zm13.8 8.9e-4c-0.262 7e-3 -0.514 0.106-0.711 0.279l-23 20.2c-0.509 0.448-0.509 1.24 0 1.69l23 20.2c0.727 0.641 1.87 0.124 1.87-0.846v-40.5c-8.9e-4 -0.634-0.525-1.14-1.16-1.12z"
     id="path58"
     inkscape:label="Skip Back" />
  <circle
     cx="31.4"
     cy="420"
     r="21.4"
     id="circle60"
     inkscape:label="Record" />
  <path
     d="m226 405c-0.31 0-0.622 0.126-0.846 0.381l-19.9 22.7c0.618-0.243 1.29-0.379 1.98-0.369h37.6c0.709-0.0105 1.39 0.139 2 0.404l-20-22.7c-0.224-0.255-0.533-0.381-0.844-0.381zm-18.9 25.2a2.5 2.5 0 1 0 0 5h37.7a2.5 2.5 0 0 0 2.54-2.54 2.5 2.5 0 0 0-2.54-2.46h-37.7z"
     id="path62"
     inkscape:label="Eject" />
  <path
     d="m337 402c-0.221-0.0279-0.446 0.139-0.445 0.395v4.95c-1.18 0.173-2.44 0.409-3.72 0.752-2.58 0.689-5.28 1.76-7.48 3.67-2.2 1.91-3.81 4.81-3.81 8.34 0 2.13-0.748 3.4-2.09 4.55-1.34 1.16-3.36 2.05-5.5 2.62-4.27 1.14-8.71 1.02-8.71 1.02a2.5 2.5 0 0 0-0.168 5s0.312 0.0108 0.861 8e-3c1.65-0.0101 5.43-0.158 9.3-1.19 2.58-0.689 5.28-1.76 7.48-3.67 2.2-1.91 3.81-4.81 3.81-8.33 0-2.13 0.748-3.4 2.09-4.56 1.34-1.16 3.36-2.05 5.49-2.62 0.819-0.218 1.64-0.379 2.44-0.514v4.19c3.1e-4 0.222 0.184 0.4 0.406 0.393 0.092-2e-3 0.181-0.037 0.25-0.0977l8.07-7.1c0.179-0.157 0.179-0.437 0-0.594l-8.07-7.11c-0.0638-0.0562-0.137-0.0884-0.211-0.0977zm-31.1 4.9c-0.549-3e-3 -0.861 8e-3 -0.861 8e-3 -3.33 0.112-3.16 5.11 0.168 5 0 0 4.44-0.12 8.71 1.02 2.13 0.569 4.16 1.46 5.5 2.62 0.42 0.363 0.774 0.741 1.07 1.15 0.504-1.78 1.38-3.35 2.48-4.66-0.0943-0.0875-0.183-0.184-0.279-0.268-2.2-1.91-4.9-2.98-7.48-3.67-3.88-1.03-7.66-1.18-9.3-1.19zm31 16.3c-0.222-7e-3 -0.406 0.17-0.406 0.393v4.19c-0.799-0.135-1.62-0.295-2.44-0.514-2.13-0.569-4.16-1.46-5.49-2.62-0.419-0.363-0.774-0.741-1.07-1.15-0.504 1.78-1.38 3.35-2.48 4.66 0.095 0.0882 0.184 0.185 0.281 0.27 2.2 1.91 4.9 2.98 7.48 3.67 1.29 0.343 2.54 0.579 3.72 0.752v4.95c-5.2e-4 0.34 0.401 0.522 0.656 0.297l8.07-7.11c0.179-0.157 0.179-0.437 0-0.594l-8.07-7.1c-0.0692-0.0607-0.158-0.0957-0.25-0.0977z"
     id="path64"
     inkscape:label="Shuffle" />
  <path
     d="m187 471c-0.222-7e-3 -0.406 0.172-0.406 0.395v4.61h-16.4c-4.11 0-7.5 3.39-7.5 7.5v11.4c0 4.11 3.39 7.5 7.5 7.5h7.73c0.045-7.4e-4 0.0899-3e-3 0.135-6e-3l-1.22-1.07c-0.838-0.737-0.838-2.11 0-2.84l1.22-1.07c-0.0455-3e-3 -0.0911-4e-3 -0.137-4e-3h-7.73c-1.43 0-2.5-1.07-2.5-2.5v-11.4c0-1.43 1.07-2.5 2.5-2.5h16.4v4.6c-5.2e-4 0.34 0.401 0.522 0.656 0.297l8.07-7.1c0.179-0.157 0.179-0.437 0-0.594l-8.07-7.11c-0.0692-0.0608-0.158-0.0947-0.25-0.0976zm8.23 5c-0.0463 6.7e-4 -0.0925 3e-3 -0.139 6e-3l1.22 1.07c0.838 0.737 0.838 2.11 0 2.84l-1.22 1.07c0.0468 3e-3 0.0937 4e-3 0.141 4e-3h7.74c1.43 0 2.5 1.07 2.5 2.5v11.4c0 1.43-1.07 2.5-2.5 2.5h-16.4v-4.61c-3.2e-4 -0.222-0.184-0.401-0.406-0.395-0.0921 3e-3 -0.179 0.0368-0.248 0.0977l-8.07 7.11c-0.179 0.157-0.179 0.437 0 0.594l8.07 7.1c0.255 0.225 0.655 0.0432 0.654-0.297v-4.6h16.4c4.11 0 7.5-3.39 7.5-7.5v-11.4c0-4.11-3.39-7.5-7.5-7.5z"
     id="path66"
     inkscape:label="Repeat" />
  <path
     d="m339 472c-1.38 0-2.5 1.12-2.5 2.5s1.12 2.5 2.5 2.5 2.5-1.12 2.5-2.5-1.12-2.5-2.5-2.5zm-5.24 8.53c-2.03-0.0287-2.03 3.03 0 3h2.74v20.1h-2.74c-2.03-0.0287-2.03 3.03 0 3h10.5c2.03 0.0287 2.03-3.03 0-3h-2.74v-20.5c0.0198-1.41-1.13-2.56-2.54-2.54z"
     id="path68"
     inkscape:label="Info" />
  <path
     d="m263 468c-0.222-7e-3 -0.406 0.172-0.406 0.395v4.61h-16.4c-4.11 0-7.5 3.39-7.5 7.5v11.4c0 4.11 3.39 7.5 7.5 7.5h7.73c0.045-7.4e-4 0.0899-3e-3 0.135-6e-3l-1.22-1.07c-0.838-0.737-0.838-2.11 0-2.84l1.22-1.07c-0.0455-3e-3 -0.0911-4e-3 -0.137-4e-3h-7.73c-1.43 0-2.5-1.07-2.5-2.5v-11.4c0-1.43 1.07-2.5 2.5-2.5h16.4v4.6c-5e-4 0.34 0.401 0.522 0.656 0.297l8.07-7.1c0.179-0.157 0.179-0.437 0-0.594l-8.07-7.11c-0.0692-0.0608-0.158-0.0947-0.25-0.0977zm8.23 5c-0.0463 6.8e-4 -0.0925 3e-3 -0.139 6e-3l1.22 1.07c0.838 0.737 0.838 2.11 0 2.84l-1.22 1.07c0.0468 3e-3 0.0937 4e-3 0.141 4e-3h7.74c1.43 0 2.5 1.07 2.5 2.5v6.38c2.11 1.27 3.84 3.09 4.99 5.27 3e-3 -0.0908 0.0137-0.18 0.0137-0.271v-11.4c0-4.11-3.39-7.5-7.5-7.5zm3.44 13.5c-6.5 0-11.8 5.3-11.8 11.8s5.3 11.8 11.8 11.8 11.8-5.3 11.8-11.8-5.3-11.8-11.8-11.8zm-12.5 2.9c-0.0921 3e-3 -0.179 0.0368-0.248 0.0977l-8.07 7.11c-0.179 0.157-0.179 0.437 0 0.594l8.07 7.1c0.255 0.225 0.655 0.0432 0.654-0.297v-0.232c-0.764-1.67-1.2-3.52-1.2-5.48 0-1.95 0.437-3.8 1.2-5.48v-3.02c-3.2e-4 -0.222-0.184-0.401-0.406-0.395zm12.5 0.0996c4.87 0 8.79 3.92 8.79 8.79s-3.92 8.79-8.79 8.79-8.79-3.92-8.79-8.79 3.92-8.79 8.79-8.79zm-0.0449 1.41a1.5 1.5 0 0 0-1.02 0.438l-2.76 2.76a1.5 1.5 0 1 0 2.12 2.12l0.201-0.201v8.16a1.5 1.5 0 1 0 3 0v-11.8a1.5 1.5 0 0 0-1.54-1.5z"
     id="path70"
     inkscape:label="Repeat Once" />
  <g
     transform="translate(183,-6.83)"
     id="g76"
     inkscape:label="Microphone Mute LtR">
    <path
       d="m -77.6,16.8 c -2.62,0.0436 -5.14,0.975 -7.16,2.64 0.252,0.27 0.462,0.584 0.602,0.939 l -0.0039,-0.0137 15.6,38.7 c 1.74,-2.1 2.67,-4.75 2.64,-7.48 v -23.1 c 0.0916,-6.5 -5.21,-11.8 -11.7,-11.7 z m -11,8.63 c -0.262,1 -0.387,2.04 -0.373,3.07 v 23.1 c -0.0969,8.02 7.82,13.7 15.4,11 z m 28.4,22.3 c -1.6,0.0172 -2.88,1.34 -2.85,2.94 0,4.07 -1.72,7.89 -4.64,10.6 l 2.26,5.6 c 5.12,-3.81 8.14,-9.81 8.15,-16.2 0.0308,-1.63 -1.29,-2.96 -2.91,-2.94 z m -34.6,0.0137 v 0.002 c -1.59,0.0237 -2.86,1.33 -2.84,2.92 0,7.21 3.85,13.9 10.1,17.5 2.22,1.28 4.67,2.13 7.21,2.49 v 8.74 c -1.59,0.125 -3.16,0.371 -4.71,0.734 -2.4,0.578 -4.45,1.4 -6.08,2.58 -1.64,1.18 -3.05,2.96 -3.05,5.22 1.29e-4,1.59 1.29,2.88 2.88,2.88 h 27.7 c 1.59,-1.29e-4 2.88,-1.29 2.88,-2.88 0,-2.26 -1.41,-4.04 -3.05,-5.22 -1.64,-1.18 -3.68,-2 -6.08,-2.58 -1.51,-0.363 -3.1,-0.599 -4.71,-0.734 v -8.74 c 1.3,-0.188 2.59,-0.503 3.83,-0.941 l -2.16,-5.35 c -3.91,1.3 -8.19,0.868 -11.8,-1.2 -4.46,-2.57 -7.21,-7.33 -7.21,-12.5 0.0231,-1.63 -1.3,-2.95 -2.93,-2.93 z"
       id="path72"
       inkscape:connector-curvature="0" />
    <path
       d="m -86.9,20 a 1.5,1.5 0 0 1 1.35,0.95 l 19,47.1 a 1.5032049,1.5032049 0 1 1 -2.79,1.12 l -19,-47.1 a 1.5,1.5 0 0 1 1.43,-2.08 z"
       style="opacity:0.5"
       id="path74"
       inkscape:connector-curvature="0" />
  </g>
  <g
     transform="matrix(-1,0,0,1,103,-6.83)"
     id="g82"
     inkscape:label="Microphone Mute RtL">
    <path
       d="m -77.6,16.8 c -2.62,0.0436 -5.14,0.975 -7.16,2.64 0.252,0.27 0.462,0.584 0.602,0.939 l -0.0039,-0.0137 15.6,38.7 c 1.74,-2.1 2.67,-4.75 2.64,-7.48 v -23.1 c 0.0916,-6.5 -5.21,-11.8 -11.7,-11.7 z m -11,8.63 c -0.262,1 -0.387,2.04 -0.373,3.07 v 23.1 c -0.0969,8.02 7.82,13.7 15.4,11 z m 28.4,22.3 c -1.6,0.0172 -2.88,1.34 -2.85,2.94 0,4.07 -1.72,7.89 -4.64,10.6 l 2.26,5.6 c 5.12,-3.81 8.14,-9.81 8.15,-16.2 0.0308,-1.63 -1.29,-2.96 -2.91,-2.94 z m -34.6,0.0137 v 0.002 c -1.59,0.0237 -2.86,1.33 -2.84,2.92 0,7.21 3.85,13.9 10.1,17.5 2.22,1.28 4.67,2.13 7.21,2.49 v 8.74 c -1.59,0.125 -3.16,0.371 -4.71,0.734 -2.4,0.578 -4.45,1.4 -6.08,2.58 -1.64,1.18 -3.05,2.96 -3.05,5.22 1.29e-4,1.59 1.29,2.88 2.88,2.88 h 27.7 c 1.59,-1.29e-4 2.88,-1.29 2.88,-2.88 0,-2.26 -1.41,-4.04 -3.05,-5.22 -1.64,-1.18 -3.68,-2 -6.08,-2.58 -1.51,-0.363 -3.1,-0.599 -4.71,-0.734 v -8.74 c 1.3,-0.188 2.59,-0.503 3.83,-0.941 l -2.16,-5.35 c -3.91,1.3 -8.19,0.868 -11.8,-1.2 -4.46,-2.57 -7.21,-7.33 -7.21,-12.5 0.0231,-1.63 -1.3,-2.95 -2.93,-2.93 z"
       id="path78"
       inkscape:connector-curvature="0" />
    <path
       d="m -86.9,20 a 1.5,1.5 0 0 1 1.35,0.95 l 19,47.1 a 1.5032049,1.5032049 0 1 1 -2.79,1.12 l -19,-47.1 a 1.5,1.5 0 0 1 1.43,-2.08 z"
       style="opacity:0.5"
       id="path80"
       inkscape:connector-curvature="0" />
  </g>
  <path
     d="m100 474v30h-4.61c-0.222 3.1e-4 -0.399 0.184-0.393 0.406 2e-3 0.092 0.0369 0.179 0.0977 0.248l7.1 8.07c0.0786 0.0893 0.188 0.135 0.297 0.135s0.218-0.0454 0.297-0.135l7.11-8.07c0.225-0.255 0.0433-0.655-0.297-0.654h-4.61v-30c0-2.88 1.24-4.74 4.62-4.74 2.03 0.0287 2.03-3.03 0-3-6.61 0.0477-9.63 4.09-9.63 7.74zm19.3 30v-30h4.61c0.222-3.1e-4 0.399-0.184 0.393-0.406-2e-3 -0.092-0.0369-0.179-0.0977-0.248l-7.1-8.07c-0.0786-0.0893-0.188-0.135-0.297-0.135s-0.218 0.0454-0.297 0.135l-7.11 8.07c-0.225 0.255-0.0433 0.655 0.297 0.654h4.61v30c0 2.88-1.24 4.74-4.62 4.74-2.03-0.0287-2.03 3.03 0 3 6.61-0.0477 9.63-4.09 9.63-7.74z"
     id="path84"
     inkscape:label="Reload" />
  <path
     d="m33.9 463c-13.2 0-23.9 10.7-23.9 23.9a2.5 2.5 0 1 0 5 0c1e-6 -10.5 8.42-18.9 18.9-18.9s18.9 8.42 18.9 18.9c0 9.8-7.39 17.8-16.9 18.8v-4.51c-3.12e-4 -0.222-0.184-0.401-0.406-0.395-0.092 2e-3 -0.179 0.0388-0.248 0.0996l-8.07 7.1c-0.179 0.157-0.179 0.437 0 0.594l8.07 7.1c0.255 0.225 0.655 0.0452 0.654-0.295v-4.69c12.2-0.999 21.9-11.3 21.9-23.8 0-13.2-10.7-23.9-23.9-23.9zm-6.81 11.2c-0.376-0.0111-0.687 0.292-0.688 0.668v24.1c-8.79e-4 0.576 0.677 0.883 1.11 0.502l13.7-12c0.303-0.266 0.303-0.738 0-1l-13.7-12c-0.117-0.103-0.266-0.162-0.422-0.166z"
     id="path86"
     inkscape:label="Replay" />
</svg>
